<svg width="283" height="269" viewBox="0 0 283 269" fill="none" xmlns="http://www.w3.org/2000/svg">
<g clip-path="url(#clip0_107_297)">
<rect width="283" height="269" fill="white"/>
<path d="M136 83V178L79 174.162L136 83Z" fill="#B8D7FF"/>
<path d="M89.186 174.809C89.8889 176.085 90.8138 177.132 91.9512 178.039C92.3555 178.361 92.8537 178.688 93.0818 179.169C93.4041 179.85 94.1152 180.553 94.6904 181.036C95.4022 181.635 96.0656 182.113 96.8806 182.561C97.8702 183.106 98.9157 183.438 99.9364 183.911C100.419 184.135 100.823 183.786 101.254 183.582C103.195 182.663 105.1 181.106 106.63 179.576C106.868 179.338 109.665 177.363 108.671 176.811C108.002 176.44 107.332 176.145 106.623 175.862C105.707 175.495 104.663 175.623 103.696 175.623C101.258 175.623 98.734 175.825 96.3185 175.48C94.7977 175.263 93.3762 175.157 91.8284 175.157C91.2687 175.157 90.7705 175.175 90.2391 174.989C89.576 174.757 90.0389 175.196 90.2843 175.442C91.2867 176.444 92.133 177.434 93.534 177.929C93.909 178.061 94.4544 178.068 94.8584 178.155C95.5745 178.31 96.319 178.384 97.0227 178.588C98.682 179.07 100.165 178.891 101.758 178.239C102.383 177.983 103.068 177.797 103.722 177.625C104.496 177.422 105.344 177.641 106.042 177.192C106.338 177.002 106.678 176.992 106.978 176.792C107.29 176.584 107.496 176.408 106.927 176.605C106.433 176.775 106.305 177.197 105.906 177.457C105.577 177.671 105.293 177.89 104.989 178.129C104.393 178.597 103.785 179.019 103.063 179.279C102.379 179.526 101.311 180.128 100.789 180.597C100.305 181.033 99.285 179.589 99.0513 179.376C98.3323 178.721 97.659 178.048 96.9775 177.367C96.7092 177.099 96.6633 176.897 96.5382 176.553C96.4338 176.266 96.3553 175.993 96.2862 176.546C96.189 177.324 96.3242 178.082 97.1454 178.388C97.9941 178.703 98.9297 178.879 99.833 178.879C100.149 178.879 100.988 179.042 101.222 178.808C101.339 178.69 101.5 178.39 101.564 178.233C101.738 177.811 101.237 177.948 100.957 177.948C99.9208 177.948 98.5448 178.134 97.6235 177.548C96.6309 176.916 98.319 176.502 98.9673 176.585C99.9825 176.715 99.5319 178.567 99.1611 179.072C98.8356 179.516 98.5249 179.618 98.1404 179.925C97.9429 180.083 97.6399 180.057 97.4491 180.216C97.0808 180.523 96.1623 180.128 95.8404 179.925C95.0567 179.432 95.2369 180.605 95.582 181.024C95.861 181.362 96.3805 181.663 96.6028 182.018C96.8682 182.443 97.9885 182.251 98.4182 182.251C100.305 182.251 102.72 181.01 103.948 179.576C104.814 178.566 106.011 177.596 107.049 176.682C107.453 176.327 108.054 176.152 108.51 175.849C108.99 175.528 109.446 175.111 109.976 174.899C110.477 174.699 110.887 174.173 111.32 173.885C111.64 173.671 110.588 174.192 110.325 174.473C109.85 174.979 109.319 175.548 108.787 175.997C108.044 176.627 107.239 177.181 106.513 177.826C105.915 178.358 104.897 179.13 104.653 179.925C104.369 180.846 103.64 181.771 102.96 182.432C102.045 183.32 100.739 183.304 99.5617 183.504C98.9394 183.61 98.4249 183.501 97.8496 183.821C97.5487 183.988 97.0902 184.064 96.7449 183.995C96.1244 183.871 95.7399 182.644 95.414 182.199C95.1046 181.777 95.0435 181.238 94.768 180.817C94.4697 180.361 94.207 179.874 93.9022 179.396C93.2917 178.436 92.3527 177.906 91.6152 177.076C91.2956 176.717 90.7516 175.941 90.2326 175.971C89.8783 175.992 89.9861 177.448 90.013 177.683C90.2382 179.654 91.4755 180.47 92.791 181.786C93.6031 182.598 95.0877 182.68 95.8146 183.588C96.3102 184.208 97.6255 184.461 98.3729 184.461C100.357 184.461 102.156 183.146 103.541 181.786C104.517 180.828 105.467 179.654 106.675 178.995C107.107 178.759 107.463 178.368 107.851 178.065C108.208 177.785 108.614 177.617 108.942 177.315C109.215 177.066 109.582 176.917 109.873 176.695C110.157 176.478 110.498 176.321 110.81 176.146C111.266 175.889 111.566 175.649 112.095 175.623C112.533 175.601 112.823 175.39 113.31 175.39C114.072 175.39 114.886 175.274 115.674 175.274C116.802 175.274 118.073 175.31 119.189 175.151C119.369 175.125 119.458 174.972 119.602 174.931C119.861 174.857 120.016 175.442 120.119 175.597C120.362 175.961 120.55 176.235 120.759 176.611C120.898 176.862 120.869 177.666 121.166 177.716C121.404 177.756 121.689 178.081 121.876 178.246C122.185 178.515 122.389 178.809 122.678 179.098C122.943 179.364 123.397 179.457 123.582 179.809C123.725 180.08 123.669 180.374 123.84 180.675C123.97 180.902 124.509 181.126 124.706 181.379C125.08 181.859 126.203 182.472 126.806 182.606C127.01 182.652 127.316 183.217 127.42 183.414C127.449 183.47 127.942 184.096 127.975 184.105C128.48 184.25 128.743 184.127 129.28 183.905C130.24 183.508 131.194 182.806 132.065 182.245C132.897 181.708 133.684 181.467 134.371 180.739C134.658 180.436 134.592 179.234 134.513 178.879C134.423 178.473 134.223 177.971 133.945 177.658C133.683 177.363 132.994 177.483 132.659 177.483C131.679 177.483 130.699 177.483 129.72 177.483C127.801 177.483 125.847 177.349 123.95 177.651C122.354 177.905 120.512 177.65 119.124 176.785C118.388 176.327 119.21 176.801 119.486 176.992C120.39 177.62 120.925 177.885 122.044 178.006C123.703 178.186 125.395 178.05 127.032 178.323C127.988 178.482 128.973 178.492 129.894 178.814C130.122 178.894 130.614 178.762 130.792 178.905C130.942 179.024 130.869 179.245 130.992 179.344C131.219 179.525 131.285 180.31 131.373 180.597C131.454 180.858 131.21 180.989 130.999 181.088C130.256 181.438 131.213 179.919 131.289 179.815C131.797 179.131 132.406 178.555 133.208 178.239C133.404 178.162 134.622 177.588 134.81 177.858C134.878 177.954 133.122 178.971 133.014 179.034C131.924 179.67 130.915 180.047 129.687 180.332C128.915 180.512 128.26 180.69 127.458 180.565C126.937 180.483 126.41 180.286 125.882 180.274C125.297 180.261 124.71 180.274 124.125 180.274C123.959 180.274 123.678 180.186 123.912 180.294C125.207 180.891 124.36 182.123 124.648 183.13C124.793 183.636 125.613 183.504 126.011 183.556C126.855 183.667 127.694 183.647 128.544 183.647C128.982 183.647 129.424 183.662 129.862 183.647C130.852 183.612 131.828 182.34 132.336 181.599C133.075 180.521 133.084 179.349 133.35 178.116C133.395 177.911 133.376 177.693 133.376 177.483C133.376 176.813 133.019 178.031 132.892 178.246C132.424 179.03 131.798 179.772 131.238 180.494C130.923 180.9 130.176 181.488 130.12 182.018C130.078 182.421 129.575 182.82 129.332 183.091C129.13 183.316 128.904 183.91 128.55 183.989C128.452 184.011 128.079 184.752 128.079 184.9C128.079 184.949 130.204 184.926 130.469 184.926C131.069 184.926 131.304 184.83 130.495 184.952C129.979 185.029 129.532 185.364 129.009 185.391C128.72 185.406 128.426 185.391 128.137 185.391C127.283 185.391 126.452 185.102 125.753 184.603C124.215 183.504 123.259 181.58 123.259 179.699C123.259 179.035 123.336 178.323 123.117 177.69C122.705 176.501 121.281 175.927 120.132 175.694C119.242 175.513 118.354 175.506 117.451 175.506C117.112 175.506 116.424 175.47 116.889 176.01C117.545 176.771 118.243 177.28 119.305 177.128C119.982 177.031 120.002 176.624 119.486 176.088C118.674 175.244 117.59 174.535 116.443 174.285C116.01 174.191 113.773 174.493 113.607 173.994" stroke="#B8D7FF" stroke-width="3" stroke-linecap="round"/>
<path d="M90.859 234.194C90.258 234.457 88.7457 234.939 90.0487 234.722C90.2123 234.695 90.26 234.509 90.3981 234.469C90.5843 234.416 90.8297 234.469 91.0225 234.462C91.2363 234.453 91.9295 234.07 91.9295 234.529C91.9295 235.009 92.3309 235.355 92.3309 235.829C92.3309 237.271 92.7444 238.583 93.0297 239.978C93.3508 241.548 93.9935 243.466 93.2973 245.033C93.1243 245.422 93.2676 246.146 93.2676 246.572C93.2676 247.209 93.2676 247.845 93.2676 248.482C93.2676 249.373 93.1759 250.203 92.4944 250.816C91.5558 251.661 90.4467 250.147 90.2196 249.315C90.1008 248.879 89.7885 248.504 89.7885 248.044C89.7885 247.595 89.7885 247.147 89.7885 246.698C89.7885 246.178 89.7885 245.657 89.7885 245.137C89.7885 244.362 90.093 243.756 90.1973 243.026C90.3546 241.924 90.4269 240.774 90.123 239.68C89.8885 238.836 89.7885 237.931 89.7885 237.071C89.7885 236.043 89.5212 235.681 90.5913 235.027C90.9214 234.825 92.0053 233.436 92.435 233.822C93.049 234.375 93.5352 235.135 93.5352 235.934C93.5352 238.278 93.5352 240.622 93.5352 242.966C93.5352 243.871 92.9339 244.761 92.5985 245.516C92.4596 245.829 92.2934 246.802 91.7957 246.772C91.2616 246.741 91.2911 244.626 91.2678 244.312C91.1881 243.235 91.1266 242.127 91.1266 241.048C91.1266 240.46 90.9275 239.926 90.8664 239.346C90.8608 239.293 90.7384 238.115 90.6211 238.431C90.1815 239.618 90.0617 241.014 89.9297 242.267C89.8207 243.303 89.7885 244.313 89.7885 245.367C89.7885 245.893 89.9223 246.378 89.9223 246.906C89.9223 247.289 89.8579 247.785 90.123 248.103C90.3288 248.35 90.2291 248.886 90.3535 249.181C90.5205 249.578 90.7561 250.157 90.8515 250.586C90.9503 251.031 90.6928 251.536 91.1563 251.857C91.4086 252.032 92.6101 252.092 91.9592 251.649C91.3555 251.239 90.3684 251.877 89.7885 251.263C89.2977 250.743 89.3005 249.759 89.0525 249.114C88.6956 248.186 88.6885 247.201 88.4801 246.237C88.2395 245.124 88.1827 243.755 88.1827 242.624C88.1827 241.833 87.8787 240.281 88.2496 239.613C88.8607 238.513 88.354 237.151 88.9187 236.134C89.1393 235.737 89.0838 235.429 89.5208 235.235C89.8358 235.095 90.1502 234.769 90.3906 234.529C90.927 233.992 91.3666 233.257 92.1302 233.257C93.1747 233.257 93.6003 234.378 94.4719 234.595" stroke="#B8D7FF" stroke-width="3" stroke-linecap="round"/>
<path d="M172.619 233.525C172.165 234.282 171.528 235.196 171.31 236.068C171.181 236.583 171.281 237.224 171.281 237.755C171.281 239.169 171.534 240.671 171.786 242.059C171.934 242.871 172.018 243.722 172.113 244.542C172.197 245.272 172.485 246.061 172.485 246.78C172.485 247.448 172.257 248.573 172.678 249.114C172.998 249.525 172.745 250.244 173.154 250.653C173.671 251.17 174.493 250.28 174.76 249.88C175.305 249.063 175.5 248.453 175.421 247.434C175.35 246.508 174.893 245.782 174.893 244.832C174.893 244.506 174.876 244.232 175.094 243.97C175.367 243.642 175.294 243.524 175.458 243.16C175.784 242.435 175.696 241.682 175.696 240.885C175.696 240.225 175.464 239.638 175.429 239.011C175.411 238.687 175.479 238.335 175.421 238.015C175.366 237.711 175.161 237.459 175.161 237.138C175.161 236.59 174.893 236.017 174.893 235.465C174.893 234.731 174.423 234.522 174.232 233.852C174.125 233.479 174.611 233.455 174.611 233.614C174.611 234.557 174.053 235.464 173.853 236.365C173.577 237.604 173.141 238.811 173.02 240.082C172.935 240.975 172.599 242.169 173.213 242.959C173.223 242.971 173.422 241.102 173.422 240.691C173.422 240.04 173.359 239.374 173.526 238.744C173.664 238.22 173.81 237.793 173.823 237.242C173.83 236.944 173.913 236.397 174.157 236.201C174.24 236.135 174.394 235.67 174.462 235.532C174.606 235.245 174.801 235.218 174.96 234.93C175.168 234.556 175.841 233.852 175.994 234.566C176.219 235.619 176.365 236.625 176.365 237.703C176.365 239.408 176.365 241.113 176.365 242.818C176.365 245.517 175.039 247.907 174.893 250.519C174.89 250.584 174.637 251.252 174.596 251.292C174.489 251.4 173.749 251.353 173.689 251.248C173.617 251.121 173.272 250.831 173.154 250.757C172.935 250.62 172.752 250.166 172.752 249.917C172.752 249.37 172.626 248.278 172.351 247.813C172.018 247.251 172.217 246.064 172.217 245.434" stroke="#B8D7FF" stroke-width="3" stroke-linecap="round"/>
<line x1="136.924" y1="77.4125" x2="78.5543" y2="179.158" stroke="black" stroke-width="5" stroke-linecap="round"/>
<line x1="137.768" y1="76.8325" x2="196.562" y2="178.667" stroke="black" stroke-width="5" stroke-linecap="round"/>
<line x1="137.488" y1="178.512" x2="137.012" y2="79.4512" stroke="black" stroke-width="5" stroke-linecap="round"/>
<line x1="138.485" y1="101" x2="150.515" y2="101" stroke="black" stroke-width="5" stroke-linecap="round"/>
<line x1="138.5" y1="120.5" x2="162.5" y2="120.5" stroke="black" stroke-width="5" stroke-linecap="round"/>
<line x1="138.494" y1="141" x2="172.506" y2="141" stroke="black" stroke-width="5" stroke-linecap="round"/>
<line x1="138.495" y1="159" x2="184.505" y2="159" stroke="black" stroke-width="5" stroke-linecap="round"/>
<line x1="76.1856" y1="103.233" x2="98.1447" y2="141.267" stroke="black" stroke-width="5" stroke-linecap="round"/>
<line x1="200.273" y1="100.415" x2="176.415" y2="141.739" stroke="black" stroke-width="5" stroke-linecap="round"/>
<line x1="75.2952" y1="102.994" x2="31.4249" y2="177.122" stroke="black" stroke-width="5" stroke-linecap="round"/>
<line x1="200.436" y1="100.834" x2="250.834" y2="183.564" stroke="black" stroke-width="5" stroke-linecap="round"/>
<path d="M18 182V182C20.2908 174.599 30.8389 174.56 33 182V182" stroke="black" stroke-width="5" stroke-linecap="round"/>
<path d="M48 182V182C45.7092 189.401 35.1611 189.44 33 182V182" stroke="black" stroke-width="5" stroke-linecap="round"/>
<path d="M48 182V182C50.0355 174.954 60.0809 174.921 62 182V182" stroke="black" stroke-width="5" stroke-linecap="round"/>
<path d="M77 182V182C74.7092 189.401 64.1611 189.44 62 182V182" stroke="black" stroke-width="5" stroke-linecap="round"/>
<path d="M77 182V182C79.2908 174.599 89.8389 174.56 92 182V182" stroke="black" stroke-width="5" stroke-linecap="round"/>
<path d="M107 182V182C104.709 189.401 94.1611 189.44 92 182V182" stroke="black" stroke-width="5" stroke-linecap="round"/>
<path d="M107 182V182C109.036 174.954 119.081 174.921 121 182V182" stroke="black" stroke-width="5" stroke-linecap="round"/>
<path d="M136 182V182C133.709 189.401 123.161 189.44 121 182V182" stroke="black" stroke-width="5" stroke-linecap="round"/>
<path d="M136 182V182C138.291 174.599 148.839 174.56 151 182V182" stroke="black" stroke-width="5" stroke-linecap="round"/>
<path d="M166 182V182C163.709 189.401 153.161 189.44 151 182V182" stroke="black" stroke-width="5" stroke-linecap="round"/>
<path d="M166 182V182C168.036 174.954 178.081 174.921 180 182V182" stroke="black" stroke-width="5" stroke-linecap="round"/>
<path d="M195 182V182C192.709 189.401 182.161 189.44 180 182V182" stroke="black" stroke-width="5" stroke-linecap="round"/>
<path d="M195 182V182C197.291 174.599 207.839 174.56 210 182V182" stroke="black" stroke-width="5" stroke-linecap="round"/>
<path d="M225 182V182C222.709 189.401 212.161 189.44 210 182V182" stroke="black" stroke-width="5" stroke-linecap="round"/>
<path d="M225 182V182C227.036 174.954 237.081 174.921 239 182V182" stroke="black" stroke-width="5" stroke-linecap="round"/>
<path d="M253 184V184C254.605 177.777 263.488 177.754 265 184V184" stroke="black" stroke-width="5" stroke-linecap="round"/>
<path d="M254 182V182C251.709 189.401 241.161 189.44 239 182V182" stroke="black" stroke-width="5" stroke-linecap="round"/>
<path d="M18 199V199C20.2908 191.599 30.8389 191.56 33 199V199" stroke="black" stroke-width="5" stroke-linecap="round"/>
<path d="M48 199V199C45.7092 206.401 35.1611 206.44 33 199V199" stroke="black" stroke-width="5" stroke-linecap="round"/>
<path d="M48 199V199C50.0355 191.954 60.0809 191.921 62 199V199" stroke="black" stroke-width="5" stroke-linecap="round"/>
<path d="M77 199V199C74.7092 206.401 64.1611 206.44 62 199V199" stroke="black" stroke-width="5" stroke-linecap="round"/>
<path d="M77 199V199C79.2908 191.599 89.8389 191.56 92 199V199" stroke="black" stroke-width="5" stroke-linecap="round"/>
<path d="M107 199V199C104.709 206.401 94.1611 206.44 92 199V199" stroke="black" stroke-width="5" stroke-linecap="round"/>
<path d="M107 199V199C109.036 191.954 119.081 191.921 121 199V199" stroke="black" stroke-width="5" stroke-linecap="round"/>
<path d="M136 199V199C133.709 206.401 123.161 206.44 121 199V199" stroke="black" stroke-width="5" stroke-linecap="round"/>
<path d="M136 199V199C138.291 191.599 148.839 191.56 151 199V199" stroke="black" stroke-width="5" stroke-linecap="round"/>
<path d="M166 199V199C163.709 206.401 153.161 206.44 151 199V199" stroke="black" stroke-width="5" stroke-linecap="round"/>
<path d="M166 199V199C168.036 191.954 178.081 191.921 180 199V199" stroke="black" stroke-width="5" stroke-linecap="round"/>
<path d="M195 199V199C192.709 206.401 182.161 206.44 180 199V199" stroke="black" stroke-width="5" stroke-linecap="round"/>
<path d="M195 199V199C197.291 191.599 207.839 191.56 210 199V199" stroke="black" stroke-width="5" stroke-linecap="round"/>
<path d="M225 199V199C222.709 206.401 212.161 206.44 210 199V199" stroke="black" stroke-width="5" stroke-linecap="round"/>
<path d="M225 199V199C227.036 191.954 237.081 191.921 239 199V199" stroke="black" stroke-width="5" stroke-linecap="round"/>
<path d="M253 201V201C254.556 194.715 263.534 194.693 265 201V201" stroke="black" stroke-width="5" stroke-linecap="round"/>
<path d="M254 199V199C251.709 206.401 241.161 206.44 239 199V199" stroke="black" stroke-width="5" stroke-linecap="round"/>
<path d="M17 217V217C18.7904 210.326 28.313 210.299 30 217V217" stroke="black" stroke-width="5" stroke-linecap="round"/>
<path d="M45 217V217C42.7092 224.401 32.1611 224.44 30 217V217" stroke="black" stroke-width="5" stroke-linecap="round"/>
<path d="M45 217V217C47.0355 209.954 57.0809 209.921 59 217V217" stroke="black" stroke-width="5" stroke-linecap="round"/>
<path d="M74 217V217C71.7092 224.401 61.1611 224.44 59 217V217" stroke="black" stroke-width="5" stroke-linecap="round"/>
<path d="M74 217V217C76.2908 209.599 86.8389 209.56 89 217V217" stroke="black" stroke-width="5" stroke-linecap="round"/>
<path d="M104 217V217C101.709 224.401 91.1611 224.44 89 217V217" stroke="black" stroke-width="5" stroke-linecap="round"/>
<path d="M104 217V217C106.036 209.954 116.081 209.921 118 217V217" stroke="black" stroke-width="5" stroke-linecap="round"/>
<path d="M133 217V217C130.709 224.401 120.161 224.44 118 217V217" stroke="black" stroke-width="5" stroke-linecap="round"/>
<path d="M133 217V217C135.291 209.599 145.839 209.56 148 217V217" stroke="black" stroke-width="5" stroke-linecap="round"/>
<path d="M163 217V217C160.709 224.401 150.161 224.44 148 217V217" stroke="black" stroke-width="5" stroke-linecap="round"/>
<path d="M163 217V217C165.036 209.954 175.081 209.921 177 217V217" stroke="black" stroke-width="5" stroke-linecap="round"/>
<path d="M192 217V217C189.709 224.401 179.161 224.44 177 217V217" stroke="black" stroke-width="5" stroke-linecap="round"/>
<path d="M192 217V217C194.291 209.599 204.839 209.56 207 217V217" stroke="black" stroke-width="5" stroke-linecap="round"/>
<path d="M222 217V217C219.709 224.401 209.161 224.44 207 217V217" stroke="black" stroke-width="5" stroke-linecap="round"/>
<path d="M222 217V217C224.036 209.954 234.081 209.921 236 217V217" stroke="black" stroke-width="5" stroke-linecap="round"/>
<path d="M250 219V219C252.036 211.954 262.081 211.921 264 219V219" stroke="black" stroke-width="5" stroke-linecap="round"/>
<path d="M251 217V217C248.709 224.401 238.161 224.44 236 217V217" stroke="black" stroke-width="5" stroke-linecap="round"/>
<line x1="17.0305" y1="218.97" x2="19.0531" y2="18.9695" stroke="black" stroke-width="6" stroke-linecap="round"/>
<line x1="200.484" y1="175.516" x2="199.516" y2="20.5156" stroke="black" stroke-width="5" stroke-linecap="round"/>
<line x1="74.5298" y1="184.471" x2="76.4706" y2="20.4702" stroke="black" stroke-width="5" stroke-linecap="round"/>
<line x1="265.03" y1="220.97" x2="267.053" y2="18.9698" stroke="black" stroke-width="6" stroke-linecap="round"/>
<line x1="266" y1="19" x2="20" y2="19" stroke="black" stroke-width="6" stroke-linecap="round"/>
<path d="M90.5882 37.2H85.0682V32.4H101.388V37.2H95.8682V66H90.5882V37.2ZM103.945 32.4H111.769C114.489 32.4 116.473 33.04 117.721 34.32C118.969 35.568 119.593 37.504 119.593 40.128V42.192C119.593 45.68 118.441 47.888 116.137 48.816V48.912C117.417 49.296 118.313 50.08 118.825 51.264C119.369 52.448 119.641 54.032 119.641 56.016V61.92C119.641 62.88 119.673 63.664 119.737 64.272C119.801 64.848 119.961 65.424 120.217 66H114.841C114.649 65.456 114.521 64.944 114.457 64.464C114.393 63.984 114.361 63.12 114.361 61.872V55.728C114.361 54.192 114.105 53.12 113.593 52.512C113.113 51.904 112.265 51.6 111.049 51.6H109.225V66H103.945V32.4ZM111.145 46.8C112.201 46.8 112.985 46.528 113.497 45.984C114.041 45.44 114.313 44.528 114.313 43.248V40.656C114.313 39.44 114.089 38.56 113.641 38.016C113.225 37.472 112.553 37.2 111.625 37.2H109.225V46.8H111.145ZM127.384 32.4H134.536L140.008 66H134.728L133.768 59.328V59.424H127.768L126.808 66H121.912L127.384 32.4ZM133.144 54.864L130.792 38.256H130.696L128.392 54.864H133.144ZM139.818 32.4H145.146L148.602 58.464H148.698L152.154 32.4H157.002L151.914 66H144.906L139.818 32.4ZM159.538 32.4H173.938V37.2H164.818V46.08H172.066V50.88H164.818V61.2H173.938V66H159.538V32.4ZM176.976 32.4H182.256V61.2H190.944V66H176.976V32.4Z" fill="black"/>
<path d="M13.7809 229.8H17.5969L19.3609 249.168H19.4329L21.3049 229.8H25.6249L27.4969 249.168H27.5689L29.3329 229.8H32.7529L30.1969 255H25.2649L23.4649 238.008H23.3929L21.5929 255H16.3369L13.7809 229.8ZM38.716 229.8H42.676V255H38.716V229.8ZM52.6978 233.4H48.5578V229.8H60.7978V233.4H56.6578V255H52.6978V233.4ZM66.6751 229.8H70.6351V240.06H74.8831V229.8H78.8431V255H74.8831V243.66H70.6351V255H66.6751V229.8ZM91.4762 255.36C89.5322 255.36 88.0442 254.808 87.0122 253.704C85.9802 252.6 85.4642 251.04 85.4642 249.024V235.776C85.4642 233.76 85.9802 232.2 87.0122 231.096C88.0442 229.992 89.5322 229.44 91.4762 229.44C93.4202 229.44 94.9082 229.992 95.9402 231.096C96.9722 232.2 97.4882 233.76 97.4882 235.776V249.024C97.4882 251.04 96.9722 252.6 95.9402 253.704C94.9082 254.808 93.4202 255.36 91.4762 255.36ZM91.4762 251.76C92.8442 251.76 93.5282 250.932 93.5282 249.276V235.524C93.5282 233.868 92.8442 233.04 91.4762 233.04C90.1082 233.04 89.4242 233.868 89.4242 235.524V249.276C89.4242 250.932 90.1082 251.76 91.4762 251.76ZM109.886 255.36C107.966 255.36 106.502 254.82 105.494 253.74C104.486 252.636 103.982 251.064 103.982 249.024V229.8H107.942V249.312C107.942 250.176 108.11 250.8 108.446 251.184C108.806 251.568 109.31 251.76 109.958 251.76C110.606 251.76 111.098 251.568 111.434 251.184C111.794 250.8 111.974 250.176 111.974 249.312V229.8H115.79V249.024C115.79 251.064 115.286 252.636 114.278 253.74C113.27 254.82 111.806 255.36 109.886 255.36ZM125.667 233.4H121.527V229.8H133.767V233.4H129.627V255H125.667V233.4ZM149.37 229.8H155.346C157.386 229.8 158.874 230.28 159.81 231.24C160.746 232.176 161.214 233.628 161.214 235.596V236.604C161.214 237.9 160.998 238.956 160.566 239.772C160.158 240.588 159.522 241.176 158.658 241.536V241.608C160.626 242.28 161.61 244.032 161.61 246.864V249.024C161.61 250.968 161.094 252.456 160.062 253.488C159.054 254.496 157.566 255 155.598 255H149.37V229.8ZM154.878 240.06C155.67 240.06 156.258 239.856 156.642 239.448C157.05 239.04 157.254 238.356 157.254 237.396V235.992C157.254 235.08 157.086 234.42 156.75 234.012C156.438 233.604 155.934 233.4 155.238 233.4H153.33V240.06H154.878ZM155.598 251.4C156.294 251.4 156.81 251.22 157.146 250.86C157.482 250.476 157.65 249.828 157.65 248.916V246.72C157.65 245.568 157.446 244.776 157.038 244.344C156.654 243.888 156.006 243.66 155.094 243.66H153.33V251.4H155.598ZM173.608 255.36C171.664 255.36 170.176 254.808 169.144 253.704C168.112 252.6 167.596 251.04 167.596 249.024V235.776C167.596 233.76 168.112 232.2 169.144 231.096C170.176 229.992 171.664 229.44 173.608 229.44C175.552 229.44 177.04 229.992 178.072 231.096C179.104 232.2 179.62 233.76 179.62 235.776V249.024C179.62 251.04 179.104 252.6 178.072 253.704C177.04 254.808 175.552 255.36 173.608 255.36ZM173.608 251.76C174.976 251.76 175.66 250.932 175.66 249.276V235.524C175.66 233.868 174.976 233.04 173.608 233.04C172.24 233.04 171.556 233.868 171.556 235.524V249.276C171.556 250.932 172.24 251.76 173.608 251.76ZM186.258 229.8H192.126C194.166 229.8 195.654 230.28 196.59 231.24C197.526 232.176 197.994 233.628 197.994 235.596V237.144C197.994 239.76 197.13 241.416 195.402 242.112V242.184C196.362 242.472 197.034 243.06 197.418 243.948C197.826 244.836 198.03 246.024 198.03 247.512V251.94C198.03 252.66 198.054 253.248 198.102 253.704C198.15 254.136 198.27 254.568 198.462 255H194.43C194.286 254.592 194.19 254.208 194.142 253.848C194.094 253.488 194.07 252.84 194.07 251.904V247.296C194.07 246.144 193.878 245.34 193.494 244.884C193.134 244.428 192.498 244.2 191.586 244.2H190.218V255H186.258V229.8ZM191.658 240.6C192.45 240.6 193.038 240.396 193.422 239.988C193.83 239.58 194.034 238.896 194.034 237.936V235.992C194.034 235.08 193.866 234.42 193.53 234.012C193.218 233.604 192.714 233.4 192.018 233.4H190.218V240.6H191.658ZM204.738 229.8H210.786C212.754 229.8 214.23 230.328 215.214 231.384C216.198 232.44 216.69 233.988 216.69 236.028V248.772C216.69 250.812 216.198 252.36 215.214 253.416C214.23 254.472 212.754 255 210.786 255H204.738V229.8ZM210.714 251.4C211.362 251.4 211.854 251.208 212.19 250.824C212.55 250.44 212.73 249.816 212.73 248.952V235.848C212.73 234.984 212.55 234.36 212.19 233.976C211.854 233.592 211.362 233.4 210.714 233.4H208.698V251.4H210.714ZM223.323 229.8H234.123V233.4H227.283V240.06H232.719V243.66H227.283V251.4H234.123V255H223.323V229.8ZM240.361 229.8H246.229C248.269 229.8 249.757 230.28 250.693 231.24C251.629 232.176 252.097 233.628 252.097 235.596V237.144C252.097 239.76 251.233 241.416 249.505 242.112V242.184C250.465 242.472 251.137 243.06 251.521 243.948C251.929 244.836 252.133 246.024 252.133 247.512V251.94C252.133 252.66 252.157 253.248 252.205 253.704C252.253 254.136 252.373 254.568 252.565 255H248.533C248.389 254.592 248.293 254.208 248.245 253.848C248.197 253.488 248.173 252.84 248.173 251.904V247.296C248.173 246.144 247.981 245.34 247.597 244.884C247.237 244.428 246.601 244.2 245.689 244.2H244.321V255H240.361V229.8ZM245.761 240.6C246.553 240.6 247.141 240.396 247.525 239.988C247.933 239.58 248.137 238.896 248.137 237.936V235.992C248.137 235.08 247.969 234.42 247.633 234.012C247.321 233.604 246.817 233.4 246.121 233.4H244.321V240.6H245.761ZM263.989 255.36C262.069 255.36 260.617 254.82 259.633 253.74C258.649 252.636 258.157 251.064 258.157 249.024V247.584H261.901V249.312C261.901 250.944 262.585 251.76 263.953 251.76C264.625 251.76 265.129 251.568 265.465 251.184C265.825 250.776 266.005 250.128 266.005 249.24C266.005 248.184 265.765 247.26 265.285 246.468C264.805 245.652 263.917 244.68 262.621 243.552C260.989 242.112 259.849 240.816 259.201 239.664C258.553 238.488 258.229 237.168 258.229 235.704C258.229 233.712 258.733 232.176 259.741 231.096C260.749 229.992 262.213 229.44 264.133 229.44C266.029 229.44 267.457 229.992 268.417 231.096C269.401 232.176 269.893 233.736 269.893 235.776V236.82H266.149V235.524C266.149 234.66 265.981 234.036 265.645 233.652C265.309 233.244 264.817 233.04 264.169 233.04C262.849 233.04 262.189 233.844 262.189 235.452C262.189 236.364 262.429 237.216 262.909 238.008C263.413 238.8 264.313 239.76 265.609 240.888C267.265 242.328 268.405 243.636 269.029 244.812C269.653 245.988 269.965 247.368 269.965 248.952C269.965 251.016 269.449 252.6 268.417 253.704C267.409 254.808 265.933 255.36 263.989 255.36Z" fill="black"/>
</g>
<defs>
<clipPath id="clip0_107_297">
<rect width="283" height="269" fill="white"/>
</clipPath>
</defs>
</svg>
